<svg 
    id="Capa_1" 
    enable-background="new 0 0 512 512" 
    fill="#5856D6" 
    height="512" 
    viewBox="0 0 512 512" 
    width="512" 
    xmlns="http://www.w3.org/2000/svg"><g><path d="m454.703 451.996-13.565-81.392-18.847-23.149c-34.787-42.73-50.3-83.273-50.3-131.457v-10.001c0-47.878-29.16-89.071-70.651-106.759 9.123-10.529 14.663-24.243 14.663-39.235 0-33.086-26.917-60.003-60.003-60.003s-60.003 26.917-60.003 60.003c0 14.992 5.54 28.707 14.663 39.235-41.491 17.688-70.651 58.881-70.651 106.759v10.001c0 48.184-15.513 88.727-50.299 131.456l-18.848 23.15-13.565 81.392h138.7v.001c0 33.086 26.917 60.003 60.003 60.003s60.003-26.917 60.003-60.003v-.001zm-228.706-391.993c0-16.544 13.46-30.003 30.003-30.003s30.003 13.459 30.003 30.003-13.46 30.003-30.003 30.003-30.003-13.459-30.003-30.003zm-55.988 155.995v-10.001c0-47.416 38.576-85.991 85.991-85.991s85.991 38.575 85.991 85.991v10.001c0 53.875 16.541 99.123 53.507 145.994h-278.997c36.967-46.87 53.508-92.118 53.508-145.994zm-72.297 175.994h316.577l5.001 30.004h-326.579zm188.291 60.005c0 16.544-13.46 30.003-30.003 30.003s-30.003-13.459-30.003-30.003v-.001z"/></g></svg>